<?xml version="1.0" standalone="no"?>
<!DOCTYPE svg PUBLIC "-//W3C//DTD SVG 20010904//EN"
 "http://www.w3.org/TR/2001/REC-SVG-20010904/DTD/svg10.dtd">
<svg version="1.0" xmlns="http://www.w3.org/2000/svg"
 width="700.000000pt" height="700.000000pt" viewBox="0 0 700.000000 700.000000"
 preserveAspectRatio="xMidYMid meet">
<metadata>
Created by potrace 1.14, written by Peter Selinger 2001-2017
</metadata>
<g transform="translate(0.000000,700.000000) scale(0.100000,-0.100000)"
fill="#000000" stroke="none">
<path d="M3278 6995 c-1 -1 -42 -5 -89 -9 -47 -4 -95 -8 -105 -10 -10 -2 -41
-7 -69 -10 -414 -54 -867 -208 -1245 -424 -86 -49 -301 -187 -339 -218 -9 -7
-52 -41 -96 -75 -342 -266 -650 -623 -875 -1014 -47 -83 -170 -327 -170 -340
0 -3 -9 -24 -20 -48 -57 -123 -157 -435 -186 -582 -2 -11 -10 -54 -19 -95 -22
-115 -30 -160 -41 -255 -26 -230 -26 -667 1 -826 2 -13 6 -46 9 -74 47 -409
239 -952 466 -1318 30 -48 60 -95 65 -105 24 -42 133 -191 208 -285 163 -202
344 -382 557 -552 92 -74 370 -265 386 -265 4 0 15 -6 23 -14 26 -22 259 -139
387 -194 148 -64 396 -149 484 -167 8 -2 53 -12 100 -24 109 -26 200 -43 299
-57 25 -3 57 -8 71 -10 162 -25 683 -25 841 1 13 2 47 7 74 10 71 10 87 13
115 18 14 3 43 8 65 12 22 4 67 14 100 22 33 8 71 17 85 20 70 12 299 87 440
143 803 320 1468 940 1849 1724 115 236 221 539 267 761 16 79 54 301 59 350
4 33 9 71 11 85 9 47 11 525 4 605 -16 169 -22 220 -25 225 -2 3 -6 30 -10 60
-4 30 -22 123 -40 205 -53 232 -102 385 -197 610 -387 912 -1160 1626 -2103
1943 -168 57 -420 119 -555 137 -19 3 -46 7 -60 10 -13 2 -52 7 -86 11 -33 3
-74 8 -90 10 -32 5 -540 14 -546 9z"/>
</g>
</svg>
